<svg width="169" height="195" viewBox="0 0 169 195" fill="none" xmlns="http://www.w3.org/2000/svg">
<path d="M9 27.9864C9 25.3745 9.68466 22.8082 10.9857 20.5434L11.6387 19.4068C16.7342 10.5368 29.2844 9.87841 35.28 18.1665C37.9305 21.8303 42.1779 24 46.6999 24H131.215C135.516 24 139.596 22.0957 142.357 18.7991C148.167 11.8646 158.833 11.8646 164.643 18.7991L165.381 19.6806C167.719 22.4709 169 25.9949 169 29.635V84C169 133.706 128.706 174 79 174H29C17.9543 174 9 165.046 9 154V27.9864Z" fill="#FF4F15"/>
<circle cx="58" cy="82" r="30" fill="white"/>
<circle cx="125" cy="82" r="30" fill="white"/>
<path d="M44 165V183.147C44 184.915 44.934 186.552 46.4564 187.451L55 192.5" stroke="#545454" stroke-width="5" stroke-linecap="round"/>
<path d="M84 165V183.147C84 184.915 84.934 186.552 86.4564 187.451L95 192.5" stroke="#545454" stroke-width="5" stroke-linecap="round"/>
<path d="M9.2801 171.136L34.0409 153.191C44.868 145.343 45.7793 129.541 35.926 120.501C22.3709 108.065 0.5 117.681 0.5 136.076V166.656C0.5 171.174 5.62193 173.788 9.2801 171.136Z" fill="#E9501D"/>
</svg>
